<?xml version="1.0" encoding="UTF-8" standalone="no"?>
<svg width="200px" height="200px" viewBox="0 0 200 200" version="1.1" xmlns="http://www.w3.org/2000/svg"
    xmlns:xlink="http://www.w3.org/1999/xlink">
    <title>Justice Melon Logo</title>
    <defs>
        <filter id="shadow" x="-20%" y="-20%" width="140%" height="140%">
            <feGaussianBlur in="SourceAlpha" stdDeviation="3" />
            <feOffset dx="0" dy="3" result="offsetblur" />
            <feComponentTransfer>
                <feFuncA type="linear" slope="0.3" />
            </feComponentTransfer>
            <feMerge>
                <feMergeNode />
                <feMergeNode in="SourceGraphic" />
            </feMerge>
        </filter>
    </defs>
    <g id="Logo" stroke="none" stroke-width="1" fill="none" fill-rule="evenodd">
        <!-- Watermelon -->
        <circle id="Watermelon-Outer" fill="#FF5A76" cx="100" cy="110" r="75" filter="url(#shadow)" />
        <circle id="Watermelon-Inner" fill="#FF8FA2" cx="100" cy="110" r="65" />

        <!-- Seeds -->
        <g id="Seeds" transform="translate(60, 70)" fill="#333333">
            <ellipse id="Seed1" cx="15" cy="15" rx="6" ry="3" transform="rotate(30)" />
            <ellipse id="Seed2" cx="50" cy="35" rx="6" ry="3" transform="rotate(-20)" />
            <ellipse id="Seed3" cx="20" cy="55" rx="6" ry="3" transform="rotate(45)" />
            <ellipse id="Seed4" cx="40" cy="15" rx="6" ry="3" transform="rotate(-40)" />
            <ellipse id="Seed5" cx="30" cy="30" rx="6" ry="3" transform="rotate(10)" />
        </g>

        <!-- Justice Hat (Judge's Wig) -->
        <g id="Justice-Hat" transform="translate(50, 20)">
            <!-- Base of the wig -->
            <rect id="Hat-Base" fill="#EEEEEE" x="0" y="0" width="100" height="30" rx="5" stroke="#DDDDDD"
                stroke-width="1" />

            <!-- Top of the wig -->
            <rect id="Hat-Top" fill="#F8F8F8" x="10" y="-15" width="80" height="25" rx="5" stroke="#DDDDDD"
                stroke-width="1" />

            <!-- Curls of the wig -->
            <circle id="Hat-Curl1" fill="#F8F8F8" cx="85" cy="-5" r="12.5" stroke="#DDDDDD" stroke-width="1" />
            <circle id="Hat-Curl2" fill="#F8F8F8" cx="15" cy="-8" r="10" stroke="#DDDDDD" stroke-width="1" />
            <circle id="Hat-Curl3" fill="#F8F8F8" cx="35" cy="-10" r="9" stroke="#DDDDDD" stroke-width="1" />
            <circle id="Hat-Curl4" fill="#F8F8F8" cx="60" cy="-12" r="8" stroke="#DDDDDD" stroke-width="1" />
        </g>

        <!-- Optional: Judge's Gavel -->
        <g id="Gavel" transform="translate(140, 70) rotate(30)">
            <rect id="Gavel-Handle" fill="#8B4513" x="0" y="0" width="10" height="50" rx="2" />
            <rect id="Gavel-Head" fill="#8B4513" x="-10" y="-15" width="30" height="15" rx="2" />
        </g>
    </g>
</svg>